<svg width="24" height="24" viewBox="0 0 24 24" fill="none" xmlns="http://www.w3.org/2000/svg">
<path d="M12.3617 8.15869C12.0055 8.18916 11.5766 8.25479 11.0727 8.35322C10.5688 8.44932 10.1023 8.57119 9.67109 8.71416C9.23984 8.85713 8.79922 9.05635 8.35156 9.30947C7.90156 9.5626 7.51953 9.85322 7.20313 10.1767C6.88672 10.5001 6.62891 10.9056 6.42734 11.3954C6.22578 11.8829 6.125 12.4196 6.125 13.0056C6.125 13.6407 6.23516 14.2056 6.46016 14.7048C6.68281 15.204 6.98047 15.5954 7.35547 15.886C7.72813 16.1767 8.15234 16.404 8.62109 16.5704C9.08984 16.7368 9.58672 16.8118 10.1023 16.7907C10.618 16.7696 11.1219 16.6899 11.6117 16.5493C12.0992 16.411 12.5586 16.1884 12.9852 15.886C13.4117 15.5837 13.7609 15.2251 14.0352 14.8149C14.1359 14.9696 14.225 15.0845 14.3047 15.1595L14.5086 15.3681C14.6445 15.5063 14.8531 15.7103 15.1344 15.9798C15.4133 16.2493 15.6992 16.5118 15.9852 16.7696L18.432 14.4282L18.2914 14.3134C18.1906 14.236 18.0711 14.1259 17.9352 13.9782C17.7992 13.8329 17.6633 13.6712 17.532 13.4978C17.3984 13.3243 17.2836 13.1204 17.1875 12.8907C17.0914 12.661 17.0422 12.4384 17.0422 12.2228V6.06338C17.0422 5.82666 16.9977 5.57119 16.9086 5.29463C16.8172 5.02041 16.6578 4.72041 16.4234 4.39697C16.1891 4.07354 15.8984 3.78291 15.5516 3.52979C15.2023 3.27666 14.7383 3.06104 14.1547 2.8876C13.5734 2.71416 12.9219 2.62744 12.2047 2.62744C11.4711 2.62744 10.7891 2.71416 10.1516 2.88291C9.51641 3.054 8.97266 3.28135 8.51797 3.56729C8.06563 3.85322 7.67656 4.18369 7.35313 4.56104C7.02969 4.93838 6.78828 5.33213 6.63125 5.74229C6.47422 6.15244 6.39453 6.56729 6.39453 6.98682L9.56328 7.26572C9.69219 6.88135 9.86563 6.54854 10.0789 6.2626C10.2945 5.97666 10.4984 5.77041 10.6836 5.6415C10.8711 5.5126 11.0727 5.40947 11.2859 5.33213C11.5016 5.25479 11.6469 5.21494 11.7219 5.20557C11.7969 5.19854 11.8555 5.19619 11.9 5.19619C12.5258 5.19619 12.9594 5.38135 13.2031 5.74932C13.3555 5.97197 13.4305 6.30947 13.4305 6.76416V8.09072C13.0742 8.10479 12.718 8.12822 12.3617 8.15869ZM13.4328 11.7188C13.4328 12.1079 13.3813 12.4618 13.2805 12.7735C13.0648 13.4556 12.6547 13.8845 12.0523 14.0579C11.5273 14.2126 11.0281 14.1353 10.5547 13.8282C10.0508 13.5001 9.8 13.036 9.8 12.4384C9.8 11.972 9.91719 11.5735 10.1516 11.2407C10.3859 10.9103 10.6977 10.6618 11.0891 10.4978C11.4805 10.3337 11.8625 10.2165 12.2375 10.1485C12.6102 10.0782 13.0109 10.036 13.4328 10.022V11.7188Z" fill="#1DA1F2"/>
<path d="M19.3388 18.0212C19.2614 18.0001 19.1677 18.0119 19.0599 18.0517C17.6161 18.7126 16.2122 19.1837 14.8481 19.4626C11.9021 20.0626 9.03096 19.7486 6.23721 18.5228C5.46143 18.1806 4.3833 17.604 3.00283 16.7884C2.96726 16.7603 2.92387 16.744 2.87862 16.7415C2.83174 16.7392 2.7919 16.7439 2.7544 16.7626C2.7169 16.7814 2.68877 16.8048 2.66768 16.8353C2.64658 16.8658 2.6419 16.908 2.6583 16.9619C2.67237 17.0134 2.70752 17.072 2.76612 17.1353C3.00987 17.4212 3.31221 17.7259 3.6708 18.0494C4.0294 18.3728 4.50518 18.7384 5.09815 19.1462C5.69112 19.554 6.31221 19.9173 6.95674 20.2337C7.60362 20.5501 8.35362 20.8173 9.20908 21.033C10.0646 21.2486 10.92 21.3564 11.7731 21.3564C12.6216 21.3564 13.4466 21.2697 14.2458 21.1009C15.0474 20.9298 15.7224 20.7283 16.2731 20.4939C16.8216 20.2619 17.3278 20.0017 17.7919 19.7205C18.256 19.4392 18.5981 19.2001 18.8208 19.0103C19.0435 18.8181 19.2028 18.6681 19.2942 18.5556C19.4021 18.422 19.456 18.3072 19.456 18.2064C19.4583 18.1009 19.4161 18.04 19.3388 18.0212ZM21.2911 16.8494C21.1903 16.7228 20.9185 16.6408 20.4731 16.5986C20.0278 16.5564 19.6411 16.5587 19.3083 16.608C18.9497 16.6501 18.5794 16.7533 18.1997 16.922C17.8177 17.0884 17.6513 17.229 17.6935 17.3392L17.7099 17.3697L17.731 17.3861L17.7638 17.3908H17.8716C17.8903 17.3908 17.9138 17.3884 17.9466 17.3861C17.9794 17.3837 18.0099 17.379 18.038 17.3767C18.0661 17.3744 18.106 17.3697 18.1575 17.3673C18.2067 17.365 18.2536 17.358 18.2981 17.3509C18.3052 17.3509 18.3849 17.3439 18.5396 17.3298C18.6942 17.3158 18.8067 17.3064 18.8747 17.2994C18.9427 17.2923 19.0575 17.2853 19.2146 17.2783C19.3716 17.2712 19.4981 17.2712 19.5919 17.2783C19.6856 17.2853 19.7911 17.2947 19.9106 17.304C20.0302 17.3134 20.1263 17.3345 20.2013 17.3673C20.2763 17.3978 20.3325 17.4376 20.3677 17.4869C20.4896 17.6415 20.4661 17.9837 20.2974 18.5158C20.1286 19.0478 19.9692 19.472 19.8192 19.7861C19.7536 19.9197 19.7536 20.0017 19.8192 20.0369C19.8849 20.072 19.9763 20.0392 20.0981 19.9431C20.4638 19.6572 20.7685 19.2259 21.0146 18.647C21.1575 18.3048 21.2606 17.9486 21.3216 17.5759C21.3778 17.2033 21.3685 16.9619 21.2911 16.8494Z" fill="#FF9900"/>
</svg>
