<svg width="32" height="32" viewBox="0 0 32 32" fill="none" xmlns="http://www.w3.org/2000/svg">
  <path
    d="M28.9619 17.0024C28.9872 16.6716 29 16.3373 29 16.0001C29 13.9678 28.5337 12.0445 27.7022 10.3313C26.0528 11.8971 24.0895 13.1354 21.9165 13.9422C21.9718 14.6209 22 15.3072 22 16.0001C22 17.4683 21.8734 18.907 21.6306 20.3059C24.2884 19.6371 26.7623 18.5057 28.9619 17.0024Z"
    fill="#f5a164" />
  <path
    d="M19.5124 20.7336C19.832 19.2059 20 17.6226 20 16.0001C20 15.5089 19.9846 15.0213 19.9543 14.5378C18.6854 14.84 17.3614 15.0001 16 15.0001C14.6386 15.0001 13.3146 14.84 12.0457 14.5378C12.0154 15.0213 12 15.5089 12 16.0001C12 17.6226 12.168 19.2059 12.4876 20.7336C13.6328 20.909 14.8058 21.0001 16 21.0001C17.1942 21.0001 18.3672 20.909 19.5124 20.7336Z"
    fill="#f5a164" />
  <path
    d="M13.0296 22.8254C14.0037 22.9408 14.9949 23.0001 16 23.0001C17.0051 23.0001 17.9963 22.9408 18.9704 22.8254C18.2853 25.033 17.2767 27.0981 16 28.9655C14.7233 27.0981 13.7147 25.033 13.0296 22.8254Z"
    fill="#f5a164" />
  <path
    d="M10.3694 20.3059C10.1266 18.907 10 17.4683 10 16.0001C10 15.3072 10.0282 14.6209 10.0835 13.9422C7.91047 13.1354 5.94719 11.8971 4.29777 10.3313C3.46631 12.0445 3 13.9678 3 16.0001C3 16.3373 3.01285 16.6716 3.03807 17.0024C5.23767 18.5057 7.71165 19.6371 10.3694 20.3059Z"
    fill="#f5a164" />
  <path
    d="M28.4747 19.6701C27.1205 24.2807 23.2796 27.8275 18.5034 28.7592C19.6586 26.8165 20.5581 24.704 21.1553 22.4679C23.7684 21.9201 26.2314 20.9643 28.4747 19.6701Z"
    fill="#f5a164" />
  <path
    d="M3.52527 19.6701C5.76856 20.9643 8.23163 21.9201 10.8447 22.4679C11.4419 24.704 12.3414 26.8165 13.4966 28.7592C8.72036 27.8275 4.87952 24.2807 3.52527 19.6701Z"
    fill="#f5a164" />
  <path
    d="M18.5034 3.2409C21.8655 3.89676 24.7641 5.84843 26.6582 8.55482C25.2468 9.97995 23.5516 11.1235 21.6644 11.8937C21.1494 8.77726 20.058 5.85526 18.5034 3.2409Z"
    fill="#f5a164" />
  <path
    d="M16 3.03467C17.9049 5.8208 19.2129 9.04732 19.74 12.5301C18.5444 12.8369 17.2913 13.0001 16 13.0001C14.7087 13.0001 13.4556 12.8369 12.26 12.5301C12.7871 9.04732 14.0951 5.8208 16 3.03467Z"
    fill="#f5a164" />
  <path
    d="M13.4966 3.2409C11.942 5.85526 10.8506 8.77726 10.3356 11.8937C8.44838 11.1235 6.75318 9.97995 5.3418 8.55482C7.23585 5.84843 10.1345 3.89676 13.4966 3.2409Z"
    fill="#f5a164" />
</svg>