<svg width="32" height="32" viewBox="0 0 32 32" fill="none" xmlns="http://www.w3.org/2000/svg">
<path d="M15.5266 27.8809L15.5179 27.8762L15.4877 27.8599C15.462 27.8459 15.4252 27.8257 15.3781 27.7994C15.2839 27.7469 15.1483 27.6699 14.9773 27.5693C14.6353 27.3681 14.1509 27.0719 13.5714 26.6866C12.4143 25.9175 10.8683 24.7868 9.31813 23.3418C6.25042 20.4821 3 16.2335 3 11C3 7.09593 6.2848 4 10.25 4C12.5818 4 14.6698 5.06545 16 6.73546C17.3302 5.06545 19.4182 4 21.75 4C25.7152 4 29 7.09593 29 11C29 16.2335 25.7496 20.4821 22.6819 23.3418C21.1317 24.7868 19.5857 25.9175 18.4286 26.6866C17.8491 27.0719 17.3647 27.3681 17.0227 27.5693C16.8517 27.6699 16.7161 27.7469 16.6219 27.7994C16.5748 27.8257 16.538 27.8459 16.5123 27.8599L16.4821 27.8762L16.4734 27.8809L16.4697 27.8828C16.1764 28.0386 15.8236 28.0386 15.5303 27.8828L15.5266 27.8809Z" fill="#FF6B00"/>
</svg>
