<svg width="21" height="21" viewBox="0 0 21 21" fill="none" xmlns="http://www.w3.org/2000/svg">
<path fill-rule="evenodd" clip-rule="evenodd" d="M7.93015 3.86864C8.21803 3.86864 8.47103 4.05948 8.55012 4.33628L9.24922 6.78315C9.55522 7.85414 10.3924 8.69131 11.4634 8.99731L13.9102 9.69641C14.187 9.7755 14.3779 10.0285 14.3779 10.3164C14.3779 10.6043 14.187 10.8573 13.9102 10.9363L11.4634 11.6354C10.3924 11.9414 9.55522 12.7786 9.24922 13.8496L8.55012 16.2965C8.47103 16.5733 8.21803 16.7641 7.93015 16.7641C7.64227 16.7641 7.38927 16.5733 7.31019 16.2965L6.61108 13.8496C6.30509 12.7786 5.46792 11.9414 4.39692 11.6354L1.95006 10.9363C1.67326 10.8573 1.48242 10.6043 1.48242 10.3164C1.48242 10.0285 1.67326 9.7755 1.95006 9.69641L4.39692 8.99731C5.46792 8.69131 6.30509 7.85414 6.61108 6.78314L7.31019 4.33628C7.38927 4.05948 7.64227 3.86864 7.93015 3.86864Z" fill="#FF6B00"/>
<path fill-rule="evenodd" clip-rule="evenodd" d="M15.6674 1.28955C15.9633 1.28955 16.2212 1.49091 16.293 1.77794L16.5155 2.66813C16.7176 3.47667 17.3489 4.10799 18.1575 4.31012L19.0477 4.53267C19.3347 4.60443 19.5361 4.86232 19.5361 5.15819C19.5361 5.45405 19.3347 5.71195 19.0477 5.78371L18.1575 6.00626C17.3489 6.20839 16.7176 6.83971 16.5155 7.64825L16.293 8.53843C16.2212 8.82547 15.9633 9.02683 15.6674 9.02683C15.3716 9.02683 15.1137 8.82547 15.0419 8.53843L14.8194 7.64825C14.6172 6.83971 13.9859 6.20839 13.1774 6.00626L12.2872 5.78371C12.0002 5.71195 11.7988 5.45405 11.7988 5.15819C11.7988 4.86232 12.0002 4.60443 12.2872 4.53267L13.1774 4.31012C13.9859 4.10799 14.6172 3.47667 14.8194 2.66813L15.0419 1.77794C15.1137 1.49091 15.3716 1.28955 15.6674 1.28955Z" fill="#FF6B00"/>
<path fill-rule="evenodd" clip-rule="evenodd" d="M14.3779 12.8955C14.6554 12.8955 14.9018 13.0731 14.9896 13.3363L15.3285 14.3531C15.4569 14.7382 15.759 15.0404 16.1441 15.1687L17.1609 15.5076C17.4242 15.5954 17.6017 15.8418 17.6017 16.1193C17.6017 16.3969 17.4242 16.6433 17.1609 16.731L16.1441 17.0699C15.759 17.1983 15.4569 17.5005 15.3285 17.8855L14.9896 18.9023C14.9018 19.1656 14.6554 19.3432 14.3779 19.3432C14.1004 19.3432 13.854 19.1656 13.7662 18.9023L13.4273 17.8855C13.2989 17.5005 12.9968 17.1983 12.6117 17.0699L11.5949 16.731C11.3316 16.6433 11.154 16.3969 11.154 16.1193C11.154 15.8418 11.3316 15.5954 11.5949 15.5076L12.6117 15.1687C12.9968 15.0404 13.2989 14.7382 13.4273 14.3531L13.7662 13.3363C13.854 13.0731 14.1004 12.8955 14.3779 12.8955Z" fill="#FF6B00"/>
</svg>
