<svg width="32" height="32" viewBox="0 0 32 32" fill="none" xmlns="http://www.w3.org/2000/svg">
  <path
    d="M6.55076 3.54431C9.31694 3.18517 12.1373 3 15.0004 3C17.8632 3 20.6833 3.18514 23.4492 3.5442C26.0122 3.87692 27.8378 6.02583 27.9897 8.51326C27.5553 8.36819 27.0949 8.27195 26.6134 8.23198C24.7619 8.07832 22.8898 8 21 8C19.1102 8 17.238 8.07831 15.3866 8.23197C12.2423 8.49295 10 11.1529 10 14.1443V19.8583C10 22.1125 11.2729 24.1768 13.2437 25.1705L9.70711 28.7071C9.42111 28.9931 8.99099 29.0787 8.61732 28.9239C8.24364 28.7691 8 28.4045 8 28V22.6274C7.51532 22.5755 7.03223 22.5182 6.55078 22.4557C3.87288 22.1081 2 19.7777 2 17.1502V8.84984C2 6.22229 3.87288 3.89198 6.55076 3.54431Z"
    fill="#f5a164" />
  <path
    d="M21 10C19.1655 10 17.3485 10.076 15.5521 10.2251C13.4997 10.3955 12 12.1371 12 14.1443V19.8583C12 21.8685 13.504 23.6111 15.5589 23.7788C17.2174 23.9142 18.8934 23.9883 20.5845 23.9987L24.2929 27.7071C24.5789 27.9931 25.009 28.0787 25.3827 27.9239C25.7564 27.7691 26 27.4045 26 27V23.8135C26.1471 23.8025 26.2941 23.791 26.441 23.779C28.496 23.6113 30 21.8687 30 19.8584V14.1443C30 12.1371 28.5003 10.3955 26.4479 10.2251C24.6515 10.076 22.8345 10 21 10Z"
    fill="#f5a164" />
</svg>