<?xml version="1.0" standalone="no"?>
<!DOCTYPE svg PUBLIC "-//W3C//DTD SVG 20010904//EN"
 "http://www.w3.org/TR/2001/REC-SVG-20010904/DTD/svg10.dtd">
<svg version="1.0" xmlns="http://www.w3.org/2000/svg"
 width="600.000000pt" height="600.000000pt" viewBox="0 0 600.000000 600.000000"
 preserveAspectRatio="xMidYMid meet">
<metadata>
Created by potrace 1.14, written by Peter Selinger 2001-2017
</metadata>
<g transform="translate(0.000000,600.000000) scale(0.100000,-0.100000)"
fill="#000000" stroke="none">
<path d="M3272 5938 c101 -84 102 -86 87 -114 -16 -30 -21 -30 -68 1 -42 28
-142 52 -205 49 -22 -1 -58 -2 -78 -3 -21 0 -38 -4 -38 -8 0 -5 37 -26 83 -48
73 -35 177 -115 177 -136 0 -4 -19 -1 -42 7 -136 48 -319 55 -433 17 -64 -22
-165 -70 -165 -79 0 -3 5 -2 10 1 6 3 10 3 10 -2 0 -31 -146 -38 -196 -10
-160 92 -267 125 -404 125 -231 0 -554 -122 -899 -338 -167 -105 -206 -119
-334 -117 -53 1 -97 1 -97 0 0 -2 17 -13 38 -26 45 -29 134 -63 186 -71 57 -9
60 -15 29 -48 -52 -55 -98 -72 -193 -71 -47 0 -103 5 -124 11 -22 6 -42 9 -45
6 -3 -3 13 -23 37 -44 70 -64 178 -105 297 -114 50 -3 50 -4 51 -39 1 -19 -5
-75 -12 -123 -14 -89 -20 -261 -11 -299 24 -99 105 -165 223 -180 194 -25 360
36 528 194 93 89 205 247 251 356 27 65 75 207 81 240 20 119 47 200 63 190 9
-5 7 -92 -2 -130 -3 -11 -21 -90 -41 -175 -20 -85 -60 -238 -89 -339 l-52
-184 -97 -51 c-150 -79 -218 -122 -351 -222 -270 -203 -462 -417 -655 -729
-32 -52 -122 -239 -151 -315 -18 -47 -39 -101 -47 -120 -7 -19 -23 -70 -34
-112 -21 -78 -26 -98 -35 -153 -3 -16 -8 -37 -10 -45 -5 -16 -10 -53 -23 -155
-8 -73 -8 -401 2 -470 14 -110 19 -137 31 -195 3 -14 7 -36 10 -49 7 -39 35
-131 65 -216 100 -286 251 -530 460 -748 36 -38 73 -85 83 -106 29 -62 78
-108 128 -120 52 -13 61 -18 176 -95 84 -57 319 -177 413 -211 142 -52 275
-87 410 -110 52 -9 106 -18 120 -21 29 -5 237 -18 295 -18 90 0 296 17 365 29
14 3 45 8 70 11 25 3 97 19 160 36 63 16 123 31 133 33 53 12 240 87 362 145
419 201 779 526 1027 926 160 259 264 543 314 859 25 161 24 508 -2 650 -44
246 -97 413 -189 600 -128 260 -270 442 -533 686 l-61 56 4 69 c12 208 27 333
60 474 3 14 8 36 11 50 13 68 25 76 47 33 10 -19 15 -68 16 -143 4 -270 27
-403 92 -533 44 -87 73 -122 125 -153 94 -55 196 -27 313 85 126 122 167 247
196 595 3 33 6 61 8 62 1 1 31 4 67 7 73 6 134 26 197 62 58 35 59 41 3 37
-119 -9 -223 36 -466 200 -93 63 -199 131 -235 151 -137 76 -289 114 -418 103
-104 -9 -127 -8 -194 9 -47 12 -114 51 -147 85 -13 14 -86 58 -190 115 -53 29
-76 51 -125 117 -99 132 -214 227 -380 312 -49 25 -94 46 -98 46 -4 0 20 -23
55 -52z"/>
<path d="M2557 164 c-1 -1 -157 -5 -347 -9 -190 -3 -376 -8 -415 -10 -38 -2
-135 -6 -215 -10 -80 -3 -161 -8 -180 -10 -19 -2 -69 -6 -110 -9 -138 -12
-285 -40 -242 -47 6 -1 15 -2 20 -3 6 -2 85 -12 176 -22 104 -11 261 -20 561
-31 433 -16 2046 -7 2270 12 22 2 90 6 150 10 61 3 124 8 140 10 17 2 53 6 80
10 68 8 107 16 102 21 -10 10 -135 28 -272 39 -44 3 -96 8 -115 10 -34 4 -210
13 -415 20 -234 9 -1182 24 -1188 19z"/>
</g>
</svg>
